<?xml version="1.0" standalone="no"?>
<!DOCTYPE svg PUBLIC "-//W3C//DTD SVG 20010904//EN"
 "http://www.w3.org/TR/2001/REC-SVG-20010904/DTD/svg10.dtd">
<svg version="1.0" xmlns="http://www.w3.org/2000/svg"
 width="1635.000000pt" height="1635.000000pt" viewBox="0 0 1635.000000 1635.000000"
 preserveAspectRatio="xMidYMid meet">
<metadata>
Created by potrace 1.11, written by Peter Selinger 2001-2013
</metadata>
<g transform="translate(0.000000,1635.000000) scale(0.100000,-0.100000)"
fill="#000000" stroke="none">
<path d="M2260 8235 l0 -5895 5895 0 5895 0 -3 5123 -2 5122 -27 121 c-161
717 -674 1231 -1393 1396 l-100 23 -5132 2 -5133 3 0 -5895z m10245 5462 c295
-59 542 -193 743 -402 182 -189 287 -383 355 -655 l22 -85 2 -4897 3 -4898
-5475 0 -5475 0 0 5480 0 5480 4868 -2 c4635 -3 4871 -4 4957 -21z"/>
<path d="M5886 12970 c-138 -54 -209 -202 -209 -435 -1 -328 115 -478 358
-463 94 6 169 37 161 66 -2 9 -10 41 -16 70 -10 43 -15 52 -29 46 -95 -40
-130 -43 -191 -11 -37 18 -51 33 -75 82 -28 55 -30 70 -33 187 -6 194 34 291
129 320 38 11 115 3 161 -16 13 -6 18 2 28 51 6 32 14 66 16 75 13 44 -207 64
-300 28z"/>
<path d="M3268 12973 l-28 -4 0 -439 0 -438 65 -7 c36 -4 109 -5 162 -3 106 4
177 28 239 81 38 32 87 124 105 197 18 72 18 278 0 358 -27 123 -107 215 -213
247 -49 14 -255 19 -330 8z m264 -153 c45 -13 93 -66 110 -122 18 -65 16 -262
-5 -328 -26 -86 -90 -140 -166 -140 -64 0 -61 -17 -61 306 l0 294 43 0 c23 0
59 -5 79 -10z"/>
<path d="M8082 12957 c-36 -38 -38 -78 -7 -115 23 -27 33 -32 72 -32 36 0 50
6 75 30 25 26 29 36 24 63 -14 72 -116 106 -164 54z"/>
<path d="M9038 12973 l-28 -4 0 -439 0 -438 65 -7 c36 -4 109 -5 162 -3 106 4
177 28 239 81 38 32 87 124 105 197 18 72 18 278 0 358 -27 123 -107 215 -213
247 -49 14 -255 19 -330 8z m264 -153 c45 -13 93 -66 110 -122 18 -65 16 -262
-5 -328 -26 -86 -90 -140 -166 -140 -64 0 -61 -17 -61 306 l0 294 43 0 c23 0
59 -5 79 -10z"/>
<path d="M10682 12957 c-36 -38 -38 -78 -7 -115 23 -27 33 -32 72 -32 36 0 50
6 75 30 25 26 29 36 24 63 -14 72 -116 106 -164 54z"/>
<path d="M4520 12866 l-65 -23 -3 -61 -3 -62 -34 0 -35 0 0 -65 0 -65 34 0 34
0 4 -212 c3 -200 4 -215 25 -249 12 -19 34 -41 48 -47 37 -17 128 -15 176 4
l41 17 -7 46 c-11 78 -13 81 -41 71 -35 -14 -50 -12 -68 6 -13 13 -16 45 -16
190 l0 174 60 0 60 0 0 65 0 65 -60 0 -60 0 0 85 c0 62 -3 85 -12 84 -7 0 -42
-11 -78 -23z"/>
<path d="M7420 12866 l-65 -23 -3 -61 -3 -62 -34 0 -35 0 0 -65 0 -65 34 0 34
0 4 -212 c3 -200 4 -215 25 -249 12 -19 34 -41 48 -47 37 -17 128 -15 176 4
l41 17 -7 46 c-11 78 -13 81 -41 71 -35 -14 -50 -12 -68 6 -13 13 -16 45 -16
190 l0 174 60 0 60 0 0 65 0 65 -60 0 -60 0 0 85 c0 62 -3 85 -12 84 -7 0 -42
-11 -78 -23z"/>
<path d="M6360 12727 c-50 -16 -114 -84 -134 -143 -24 -66 -32 -217 -16 -296
29 -149 106 -218 244 -218 67 0 164 28 185 54 17 20 -26 119 -48 110 -88 -37
-115 -41 -166 -20 -37 16 -59 51 -70 109 l-7 37 155 0 156 0 7 56 c16 134 -17
245 -89 292 -33 22 -53 27 -111 29 -39 1 -87 -3 -106 -10z m129 -134 c12 -10
26 -36 31 -58 18 -77 20 -75 -75 -75 -84 0 -85 0 -85 25 0 59 48 125 91 125 9
0 27 -8 38 -17z"/>
<path d="M6990 12729 c-14 -6 -39 -24 -56 -41 l-32 -30 -7 31 c-7 31 -7 31
-71 31 l-64 0 0 -315 0 -315 80 0 80 0 0 229 0 229 31 26 c37 31 72 33 99 6
19 -19 20 -33 20 -255 l0 -235 81 0 80 0 -3 268 c-3 257 -4 269 -26 310 -15
29 -35 48 -57 58 -39 16 -118 18 -155 3z"/>
<path d="M8452 12719 c-83 -41 -122 -124 -129 -276 -14 -249 63 -373 230 -373
53 0 128 20 152 40 10 8 9 24 -3 71 -12 49 -18 59 -31 53 -82 -35 -130 -25
-165 36 -28 47 -30 228 -4 276 24 44 67 60 126 46 26 -6 48 -9 50 -7 10 10 32
119 25 125 -39 35 -187 40 -251 9z"/>
<path d="M9830 12727 c-50 -16 -114 -84 -134 -143 -24 -66 -32 -217 -16 -296
29 -149 106 -218 244 -218 67 0 164 28 185 54 17 20 -26 119 -48 110 -88 -37
-115 -41 -166 -20 -37 16 -59 51 -70 109 l-7 37 155 0 156 0 7 56 c16 134 -17
245 -89 292 -33 22 -53 27 -111 29 -39 1 -87 -3 -106 -10z m129 -134 c12 -10
26 -36 31 -58 18 -77 20 -75 -75 -75 -84 0 -85 0 -85 25 0 59 48 125 91 125 9
0 27 -8 38 -17z"/>
<path d="M10290 12718 c-75 -39 -112 -148 -79 -235 14 -37 75 -100 120 -123
98 -51 127 -111 73 -147 -24 -16 -31 -16 -83 -1 -31 8 -63 18 -72 22 -14 6
-21 -5 -38 -55 -24 -71 -24 -70 53 -94 69 -21 171 -19 222 4 95 43 131 173 77
278 -13 25 -41 52 -84 80 -108 71 -119 82 -119 114 0 44 34 56 107 38 32 -7
62 -13 67 -14 6 0 18 26 27 58 l17 58 -36 16 c-21 8 -75 18 -122 20 -74 4 -91
2 -130 -19z"/>
<path d="M11730 12729 c-14 -6 -39 -24 -56 -41 l-32 -30 -7 31 c-7 31 -7 31
-71 31 l-64 0 0 -315 0 -315 80 0 80 0 0 229 0 229 31 26 c37 31 72 33 99 6
19 -19 20 -33 20 -255 l0 -235 81 0 80 0 -3 268 c-3 257 -4 269 -26 310 -15
29 -35 48 -57 58 -39 16 -118 18 -155 3z"/>
<path d="M4000 12716 c-25 -7 -55 -18 -66 -24 l-22 -12 21 -55 c15 -43 24 -54
36 -50 24 9 110 25 138 25 40 0 73 -42 73 -93 l0 -44 -77 -5 c-149 -9 -223
-75 -223 -199 0 -99 55 -169 139 -177 68 -6 95 2 141 44 l39 35 7 -35 6 -36
65 0 65 0 -7 28 c-4 15 -7 128 -6 252 1 216 0 227 -21 269 -37 72 -64 86 -171
88 -52 1 -112 -4 -137 -11z m180 -411 c0 -52 -2 -57 -32 -75 -42 -25 -63 -25
-88 0 -25 25 -27 81 -2 102 23 21 40 26 85 27 l37 1 0 -55z"/>
<path d="M4880 12716 c-25 -7 -55 -18 -66 -24 l-22 -12 21 -55 c15 -43 24 -54
36 -50 24 9 110 25 138 25 40 0 73 -42 73 -93 l0 -44 -77 -5 c-149 -9 -223
-75 -223 -199 0 -99 55 -169 139 -177 68 -6 95 2 141 44 l39 35 7 -35 6 -36
65 0 65 0 -7 28 c-4 15 -7 128 -6 252 1 216 0 227 -21 269 -37 72 -64 86 -171
88 -52 1 -112 -4 -137 -11z m180 -411 c0 -52 -2 -57 -32 -75 -42 -25 -63 -25
-88 0 -25 25 -27 81 -2 102 23 21 40 26 85 27 l37 1 0 -55z"/>
<path d="M7888 12714 c-15 -8 -32 -23 -38 -34 -15 -28 -27 -25 -33 10 -6 29
-8 30 -67 30 l-60 0 0 -315 0 -315 80 0 80 0 0 216 c0 119 4 223 10 233 13 25
58 42 100 39 l34 -3 9 64 c4 36 6 70 3 78 -7 18 -84 16 -118 -3z"/>
<path d="M11070 12703 c-95 -50 -140 -151 -140 -313 0 -217 70 -317 216 -308
43 3 69 10 83 23 30 26 34 15 22 -51 -20 -108 -67 -124 -227 -78 -19 5 -22 -1
-34 -56 -11 -53 -11 -63 1 -71 53 -34 220 -40 284 -10 49 23 88 63 112 116 16
36 18 78 21 391 l3 350 -38 13 c-21 7 -85 15 -143 18 -101 5 -107 4 -160 -24z
m158 -109 c22 -6 22 -9 22 -174 l0 -169 -26 -20 c-78 -61 -134 9 -134 169 0
155 45 219 138 194z"/>
<path d="M8070 12405 l0 -315 80 0 80 0 0 315 0 315 -80 0 -80 0 0 -315z"/>
<path d="M10670 12405 l0 -315 80 0 80 0 0 315 0 315 -80 0 -80 0 0 -315z"/>
<path d="M5310 12455 l0 -75 135 0 135 0 0 75 0 75 -135 0 -135 0 0 -75z"/>
<path d="M5345 10654 c-340 -21 -696 -47 -760 -57 l-80 -12 -3 -2685 c-1
-1476 1 -2687 5 -2691 27 -26 784 -72 1203 -73 364 -1 449 6 680 56 395 85
776 303 1032 593 253 286 434 676 522 1125 68 347 91 602 91 1040 0 463 -22
715 -95 1070 -193 944 -751 1483 -1670 1616 -87 12 -205 17 -490 19 -206 1
-402 1 -435 -1z m722 -895 c525 -58 831 -445 917 -1159 26 -211 36 -395 36
-640 0 -894 -171 -1458 -527 -1741 -148 -117 -295 -172 -524 -194 -60 -6 -344
7 -446 21 l-43 5 0 1849 0 1848 63 6 c167 16 405 19 524 5z"/>
<path d="M11270 8189 c0 -473 -1 -501 -17 -494 -89 37 -146 48 -288 52 -116 4
-170 1 -240 -12 -355 -67 -578 -304 -685 -730 -94 -372 -88 -947 15 -1299 70
-241 212 -428 395 -521 109 -55 184 -70 350 -69 141 0 163 3 236 27 141 47
255 139 324 261 18 31 36 56 41 56 4 0 13 -19 20 -42 6 -24 24 -88 39 -143
l27 -100 214 -3 215 -2 -13 97 c-28 221 -33 502 -33 1946 l0 1477 -300 0 -300
0 0 -501z m-98 -1019 c29 -11 63 -29 76 -40 l22 -19 -2 -603 -3 -603 -28 -57
c-54 -111 -128 -163 -252 -181 -212 -30 -331 114 -376 458 -18 138 -6 563 19
685 36 171 89 271 177 332 87 60 250 72 367 28z"/>
<path d="M8930 7741 c-306 -67 -507 -262 -620 -600 -103 -307 -127 -784 -59
-1191 27 -161 68 -290 132 -415 43 -83 68 -116 147 -196 160 -161 299 -217
560 -226 155 -6 267 8 405 48 84 25 218 90 262 127 l32 27 -61 230 c-34 127
-63 231 -64 233 -1 1 -35 -15 -75 -37 -105 -56 -176 -75 -289 -75 -208 -1
-323 90 -398 317 -47 140 -62 255 -62 466 0 429 78 641 270 730 49 23 67 26
165 25 118 -1 195 -17 292 -60 31 -13 58 -23 60 -20 2 2 35 113 73 247 79 279
83 249 -38 300 -151 63 -247 80 -457 85 -159 3 -204 1 -275 -15z"/>
<path d="M3285 3932 c-65 -41 -95 -131 -95 -287 0 -212 53 -305 171 -305 62 0
107 31 139 95 22 44 25 66 28 184 5 165 -11 241 -64 292 -29 28 -42 33 -91 36
-45 3 -65 0 -88 -15z m119 -105 c19 -26 21 -42 21 -175 0 -164 -11 -208 -52
-218 -53 -14 -83 63 -83 211 0 182 52 265 114 182z"/>
<path d="M3693 3872 l-83 -77 25 -28 25 -28 30 21 c16 12 34 29 40 38 6 12 9
-42 10 -170 l0 -188 -50 0 -50 0 0 -45 0 -45 145 0 145 0 0 45 0 45 -45 0 -45
0 0 255 0 255 -32 0 c-27 -1 -48 -15 -115 -78z"/>
<path d="M4095 3932 c-65 -41 -95 -131 -95 -287 0 -212 53 -305 171 -305 62 0
107 31 139 95 22 44 25 66 28 184 5 165 -11 241 -64 292 -29 28 -42 33 -91 36
-45 3 -65 0 -88 -15z m119 -105 c19 -26 21 -42 21 -175 0 -164 -11 -208 -52
-218 -53 -14 -83 63 -83 211 0 182 52 265 114 182z"/>
<path d="M4495 3932 c-65 -41 -95 -131 -95 -287 0 -212 53 -305 171 -305 62 0
107 31 139 95 22 44 25 66 28 184 5 165 -11 241 -64 292 -29 28 -42 33 -91 36
-45 3 -65 0 -88 -15z m119 -105 c19 -26 21 -42 21 -175 0 -164 -11 -208 -52
-218 -53 -14 -83 63 -83 211 0 182 52 265 114 182z"/>
<path d="M5063 3872 l-83 -77 25 -28 25 -28 30 21 c16 12 34 29 40 38 6 12 9
-42 10 -170 l0 -188 -50 0 -50 0 0 -45 0 -45 145 0 145 0 0 45 0 45 -45 0 -45
0 0 255 0 255 -32 0 c-27 -1 -48 -15 -115 -78z"/>
<path d="M5465 3932 c-65 -41 -95 -131 -95 -287 0 -212 53 -305 171 -305 62 0
107 31 139 95 22 44 25 66 28 184 5 165 -11 241 -64 292 -29 28 -42 33 -91 36
-45 3 -65 0 -88 -15z m119 -105 c19 -26 21 -42 21 -175 0 -164 -11 -208 -52
-218 -53 -14 -83 63 -83 211 0 182 52 265 114 182z"/>
<path d="M5865 3932 c-65 -41 -95 -131 -95 -287 0 -212 53 -305 171 -305 62 0
107 31 139 95 22 44 25 66 28 184 5 165 -11 241 -64 292 -29 28 -42 33 -91 36
-45 3 -65 0 -88 -15z m119 -105 c19 -26 21 -42 21 -175 0 -164 -11 -208 -52
-218 -53 -14 -83 63 -83 211 0 182 52 265 114 182z"/>
<path d="M6263 3872 l-83 -77 25 -28 25 -28 30 21 c16 12 34 29 40 38 6 12 9
-42 10 -170 l0 -188 -50 0 -50 0 0 -45 0 -45 145 0 145 0 0 45 0 45 -45 0 -45
0 0 255 0 255 -32 0 c-27 -1 -48 -15 -115 -78z"/>
</g>
</svg>
