<?xml version="1.0" encoding="utf-8"?>
<!-- Generator: Adobe Illustrator 24.1.2, SVG Export Plug-In . SVG Version: 6.00 Build 0)  -->
<svg version="1.1" id="Layer_1" xmlns="http://www.w3.org/2000/svg" xmlns:xlink="http://www.w3.org/1999/xlink" x="0px" y="0px"
	 viewBox="0 0 1920 1080" style="enable-background:new 0 0 1920 1080;" xml:space="preserve">
<style type="text/css">
	.st0{fill:#F2F2F2;}
	.st1{fill:#3FA9F5;}
	.st2{font-family:'PTSans-Narrow';}
	.st3{font-size:48px;}
	.st4{font-size:36px;}
</style>
<g>
	<rect x="425" y="46" class="st0" width="347" height="458"/>
</g>
<g>
	<rect x="425" y="544" class="st0" width="347" height="458"/>
</g>
<g>
	<rect x="1149" y="46" class="st0" width="347" height="458"/>
</g>
<g>
	<rect x="1149" y="544" class="st0" width="347" height="458"/>
</g>
<g>
	<rect x="787" y="46" class="st0" width="347" height="458"/>
</g>
<g>
	<rect x="787" y="544" class="st0" width="347" height="458"/>
</g>
<g>
	<rect x="63" y="544" class="st1" width="347" height="458"/>
</g>
<g>
	<rect x="1511" y="46" class="st1" width="347" height="458"/>
</g>
<g>
	<rect x="1511" y="544" class="st1" width="347" height="458"/>
</g>
<g>
	<rect x="63" y="289" class="st1" width="347" height="216"/>
</g>
<g>
	<rect x="63" y="46" class="st1" width="347" height="216"/>
</g>
<text transform="matrix(1 0 0 1 139.6669 118.7018)"><tspan x="0" y="0" class="st2 st3">Prototyping</tspan><tspan x="28.39" y="57.6" class="st2 st3">Sand Pit</tspan></text>
<text transform="matrix(1 0 0 1 128.8488 389.702)"><tspan x="0" y="0" class="st2 st3">Follow along</tspan><tspan x="42.46" y="57.6" class="st2 st3">Tutorial</tspan></text>
<text transform="matrix(1 0 0 1 1532.0898 176.7016)"><tspan x="0" y="0" class="st2 st3">30-minute / group</tspan><tspan x="31.44" y="57.6" class="st2 st3">coach meeting</tspan><tspan x="94.32" y="172.8" class="st2 st3">Project</tspan></text>
<text transform="matrix(1 0 0 1 187.6718 1033.7019)" class="st2 st4">Monday</text>
<text transform="matrix(1 0 0 1 547.0192 1034.0717)" class="st2 st4">Tuesday</text>
<text transform="matrix(1 0 0 1 889.651 1034.0718)" class="st2 st4">Wednesday</text>
<text transform="matrix(1 0 0 1 1265.6017 1034.0718)" class="st2 st4">Thursday</text>
<text transform="matrix(1 0 0 1 1646.1232 1034.0718)" class="st2 st4">Friday</text>
<text transform="matrix(1 0 0 1 178.2488 772.9017)" class="st2 st3">Project</text>
<text transform="matrix(1 0 0 1 1531.9302 685.3019)"><tspan x="0" y="0" class="st2 st3">30-minute / group</tspan><tspan x="31.44" y="57.6" class="st2 st3">coach meeting</tspan><tspan x="94.32" y="172.8" class="st2 st3">Project</tspan></text>
<g>
	<rect x="425" y="397" class="st1" width="347" height="108"/>
</g>
</svg>
