<?xml version="1.0" encoding="utf-8"?>
<!-- Generator: Adobe Illustrator 24.1.2, SVG Export Plug-In . SVG Version: 6.00 Build 0)  -->
<svg version="1.1" id="Layer_1" xmlns="http://www.w3.org/2000/svg" xmlns:xlink="http://www.w3.org/1999/xlink" x="0px" y="0px"
	 viewBox="0 0 1920 1080" style="enable-background:new 0 0 1920 1080;" xml:space="preserve">
<style type="text/css">
	.st0{fill:#3FA9F5;}
	.st1{fill:#F2F2F2;}
	.st2{font-family:'PTSans-Narrow';}
	.st3{font-size:48px;}
	.st4{font-size:36px;}
</style>
<g>
	<rect x="425" y="82" class="st0" width="347" height="458"/>
</g>
<g>
	<rect x="425" y="580" class="st0" width="347" height="458"/>
</g>
<g>
	<rect x="1149" y="82" class="st0" width="347" height="458"/>
</g>
<g>
	<rect x="1149" y="580" class="st0" width="347" height="458"/>
</g>
<g>
	<rect x="787" y="82" class="st1" width="347" height="458"/>
</g>
<g>
	<rect x="787" y="580" class="st1" width="347" height="458"/>
</g>
<g>
	<rect x="63" y="580" class="st1" width="347" height="458"/>
</g>
<g>
	<rect x="1511" y="82" class="st1" width="347" height="458"/>
</g>
<g>
	<rect x="1511" y="580" class="st1" width="347" height="458"/>
</g>
<g>
	<rect x="63" y="325" class="st0" width="347" height="216"/>
</g>
<g>
	<rect x="63" y="82" class="st0" width="347" height="216"/>
</g>
<text transform="matrix(1 0 0 1 150.9472 189.7018)"><tspan x="0" y="0" class="st2 st3">Self-Study</tspan><tspan x="17.26" y="57.6" class="st2 st3">Material</tspan></text>
<text transform="matrix(1 0 0 1 148.4078 450.702)" class="st2 st3">Live Demo</text>
<text transform="matrix(1 0 0 1 502.0328 215.7017)" class="st2 st3">Assignment</text>
<text transform="matrix(1 0 0 1 502.0322 712.7019)" class="st2 st3">Assignment</text>
<text transform="matrix(1 0 0 1 1264.5039 215.7016)" class="st2 st3">Lab XP</text>
<text transform="matrix(1 0 0 1 1264.5039 712.7018)" class="st2 st3">Lab XP</text>
<text transform="matrix(1 0 0 1 187.6718 1069.7019)" class="st2 st4">Monday</text>
<text transform="matrix(1 0 0 1 547.0192 1070.0717)" class="st2 st4">Tuesday</text>
<text transform="matrix(1 0 0 1 889.651 1070.0718)" class="st2 st4">Wednesday</text>
<text transform="matrix(1 0 0 1 1265.6017 1070.0718)" class="st2 st4">Thursday</text>
<text transform="matrix(1 0 0 1 1646.1232 1070.0718)" class="st2 st4">Friday</text>
</svg>
