<?xml version="1.0" encoding="utf-8"?>
<!-- Generator: Adobe Illustrator 24.1.3, SVG Export Plug-In . SVG Version: 6.00 Build 0)  -->
<svg version="1.1" id="Layer_1" xmlns="http://www.w3.org/2000/svg" xmlns:xlink="http://www.w3.org/1999/xlink" x="0px" y="0px"
	 viewBox="0 0 1833 602" style="enable-background:new 0 0 1833 602;" xml:space="preserve">
<style type="text/css">
	.st0{fill:#637A91;}
</style>
<path class="st0" d="M325.6,366.5l125.6,125.6l44.2-45.2L369.8,321.3L325.6,366.5 M403.5,257.7c-8.2,0-17-1-23.9-4L141.2,491.1
	L97,446.9L252.1,292l-37.1-37.3L200,269.4l-30.4-29.5v59.9L155,314.4l-73.7-74.5L96,225.2h58.8l-29.3-29.5l74.5-74.5
	c24.5-24.5,63.9-24.5,88.3,0l-44.2,45.2l29.5,29.3l-14.9,14.9l37.5,37.3l38.1-39.4c-2.9-6.9-4.2-15.7-4.2-23.4
	c0-41.2,32.7-73.7,73.3-73.7c12.4,0,23.2,2.9,33.1,8.8L380.7,176l31.4,31.4l55.9-55.9c5.9,9.8,8.8,20.3,8.8,33.5
	C476.8,225.2,444.3,257.7,403.5,257.7z"/>
<path class="st0" d="M864,165.2v18.9h113.4v-18.9H864 M1109.6,410.9c0,10-4,18.9-11.3,26.6c-7.6,7.6-16.1,11.1-26.5,11.1H769.5
	c-10.4,0-18.9-3.6-26.5-11.1c-7.4-7.8-11.3-16.6-11.3-26.6v-75.6h94.5v18.9h37.8v-18.9h113.4v18.9h37.8v-18.9h94.5L1109.6,410.9
	 M778.9,207.1c6.4-15.3,18-23.1,34.6-23.1h12.7v-18.9c0-10.4,3.4-18.9,10.8-26.6c7.4-7.4,16.4-11.2,27-11.2h113.4
	c10.6,0,19.7,3.8,27,11.2c7.4,7.8,10.8,16.2,10.8,26.6v18.9h12.7c16.6,0,28.2,7.8,34.6,23.1l39.3,90.3h-86.5v-18.9h-37.8v18.9H864
	v-18.9h-37.8v18.9h-86.6L778.9,207.1z"/>
<path class="st0" d="M1357.9,259.9l117.4-117.6l34.3,34.5c-4.9,17.3,3.1,36.1,18.9,45.3v112.5c-12.2,6.9-20.3,20.1-20.3,35.1
	c0,22.4,18.2,40.6,40.6,40.6s40.6-18.2,40.6-40.6c0-15-8.1-28.2-20.3-35.1V236l42,42.4c-1.4,3-1.4,6.5-1.4,10.1
	c0,22.4,18.2,40.6,40.6,40.6s40.6-18.2,40.6-40.6s-18.2-40.6-40.6-40.6c-3.7,0-7.1,0-10.2,1.4l-52.2-52.2
	c5.3-18.9-4.5-39.6-23.3-47.5c-8.7-3.2-17.9-4.1-26-1.8l-34.5-34.3l16-15.8c15.8-16,41.4-16,57.3,0l162.2,162.2
	c16,15.8,16,41.4,0,57.3l-162.2,162.2c-15.8,16-41.4,16-57.3,0l-162.2-162.2C1341.9,301.3,1341.9,275.8,1357.9,259.9z"/>
</svg>
