<?xml version="1.0" encoding="utf-8"?>
<!-- Generator: Adobe Illustrator 24.1.3, SVG Export Plug-In . SVG Version: 6.00 Build 0)  -->
<svg version="1.1" id="Layer_1" xmlns="http://www.w3.org/2000/svg" xmlns:xlink="http://www.w3.org/1999/xlink" x="0px" y="0px"
	 viewBox="0 0 1833 602" style="enable-background:new 0 0 1833 602;" xml:space="preserve">
<style type="text/css">
	.st0{fill:#637A91;}
</style>
<path class="st0" d="M686.9,387.9l93.4-161.5v239.9v41H369.8V137.9h41v257.3l112.9-195.8L657.1,277l87-150.4l35.5,20.5L672.3,332.9
	l-133.6-77L417.2,466.3h46.4l90.1-155.1L686.9,387.9z"/>
<path class="st0" d="M1203.5,262.5c0,45.6-37,82.6-82.6,82.6s-82.6-37-82.6-82.6s37-82.6,82.6-82.6S1203.5,216.9,1203.5,262.5
	 M1203.5,401.3v109.1H976.3v-41.3c0-45.6,64.6-82.6,144.6-82.6C1151.9,386.5,1180.2,392,1203.5,401.3 M1472,510.4h-227.2V159.3H1472
	V510.4 M1306.8,334.8c0-28.5,23.1-51.6,51.6-51.6s51.6,23.1,51.6,51.6s-23.1,51.6-51.6,51.6S1306.8,363.3,1306.8,334.8
	 M1430.7,241.9c-22.7,0-41.3-18.4-41.3-41.3h-62c0,22.9-18.4,41.3-41.3,41.3v185.9c22.9,0,41.3,18.6,41.3,41.3h62
	c0-22.7,18.6-41.3,41.3-41.3V241.9z"/>
</svg>
