<?xml version="1.0" encoding="utf-8"?>
<!-- Generator: Adobe Illustrator 24.1.3, SVG Export Plug-In . SVG Version: 6.00 Build 0)  -->
<svg version="1.1" id="Layer_1" xmlns="http://www.w3.org/2000/svg" xmlns:xlink="http://www.w3.org/1999/xlink" x="0px" y="0px"
	 viewBox="0 0 1833 602" style="enable-background:new 0 0 1833 602;" xml:space="preserve">
<style type="text/css">
	.st0{font-family:'PTSans-NarrowBold';}
	.st1{font-size:108.0424px;}
</style>
<text transform="matrix(1 0 0 1 195.0786 149.6448)"><tspan x="0" y="0" class="st0 st1">01000100</tspan><tspan x="0" y="129.65" class="st0 st1">01100001</tspan><tspan x="0" y="259.3" class="st0 st1">01110100</tspan><tspan x="0" y="388.95" class="st0 st1">01100001</tspan></text>
<path d="M1484.08,119.45c-89.16,0-161.38,36.11-161.38,80.69s72.22,80.69,161.38,80.69s161.38-36.11,161.38-80.69
	S1573.24,119.45,1484.08,119.45 M1322.7,240.48V301c0,44.58,72.22,80.69,161.38,80.69s161.38-36.11,161.38-80.69v-60.52
	c0,44.58-72.22,80.69-161.38,80.69S1322.7,285.06,1322.7,240.48 M1322.7,341.34v60.52c0,44.58,72.22,80.69,161.38,80.69
	s161.38-36.11,161.38-80.69v-60.52c0,44.58-72.22,80.69-161.38,80.69S1322.7,385.93,1322.7,341.34z"/>
<path d="M965.63,298.53c15.65-58.41,28.02-96.62,55.31-96.62c27.29,0,39.67,38.21,55.31,96.62
	c17.47,65.69,37.48,139.92,108.44,139.92v-36.39c-40.03,0-54.59-44.76-73.33-112.81c-16.19-60.77-33.12-123.73-90.43-123.73
	s-74.24,62.96-90.43,123.73c-18.2,68.05-33.3,112.81-73.33,112.81V129.13H820.8v363.91h363.91v-36.39H857.19v-18.2
	C928.15,438.45,948.16,364.22,965.63,298.53z"/>
</svg>
