<?xml version="1.0" encoding="utf-8"?>
<!-- Generator: Adobe Illustrator 24.1.3, SVG Export Plug-In . SVG Version: 6.00 Build 0)  -->
<svg version="1.1" id="Layer_1" xmlns="http://www.w3.org/2000/svg" xmlns:xlink="http://www.w3.org/1999/xlink" x="0px" y="0px"
	 viewBox="0 0 1833 602" style="enable-background:new 0 0 1833 602;" xml:space="preserve">
<style type="text/css">
	.st0{fill:#637A91;}
</style>
<path class="st0" d="M1422.5,490.5h-309c-52.5,0-95.1-42.6-95.1-95.1s42.6-95.1,95.1-95.1h16.9c15.7-54.9,66.3-95.1,125.7-95.1
	c72.2,0,130.7,58.5,130.7,130.7v11.9h35.7c39.4,0,71.3,31.9,71.3,71.3S1461.8,490.5,1422.5,490.5 M1430.8,301.1
	c-16.2-81.8-88.2-143.3-174.7-143.3c-68.7,0-128.3,39-158.1,95.8c-71.5,7.8-127.2,68.2-127.2,141.9c0,78.8,63.8,142.6,142.6,142.6
	h309c65.6,0,118.8-53.2,118.8-118.8C1541.3,356.5,1492.6,305.6,1430.8,301.1z"/>
<path class="st0" d="M405.3,203.4h-63.5c-35.1,0-63.5,28.4-63.5,63.5v254h63.5v-127h63.5v127h63.5v-254
	C468.8,231.9,440.4,203.4,405.3,203.4 M405.3,330.4h-63.5v-63.5h63.5 M627.6,203.4h-127v317.5h63.5v-127h63.5
	c35.1,0,63.5-28.4,63.5-63.5v-63.5C691.1,231.9,662.6,203.4,627.6,203.4 M627.6,330.4h-63.5v-63.5h63.5 M818.1,266.9v190.5h31.8
	v63.5h-127v-63.5h31.8V266.9h-31.8v-63.5h127v63.5H818.1z"/>
</svg>
