<?xml version="1.0" encoding="utf-8"?>
<!-- Generator: Adobe Illustrator 24.1.3, SVG Export Plug-In . SVG Version: 6.00 Build 0)  -->
<svg version="1.1" id="Layer_1" xmlns="http://www.w3.org/2000/svg" xmlns:xlink="http://www.w3.org/1999/xlink" x="0px" y="0px"
	 viewBox="0 0 1833 602" style="enable-background:new 0 0 1833 602;" xml:space="preserve">
<style type="text/css">
	.st0{fill:#637A91;}
</style>
<path class="st0" d="M1063.9,247.1c27,0,49.1,21.9,49.1,49.1v245.6c0,27-22.1,49.1-49.1,49.1H769.1c-27.3,0-49.1-22.1-49.1-49.1
	V296.2c0-27.3,21.9-49.1,49.1-49.1h24.6v-49.1c0-67.8,55-122.9,122.8-122.9s122.8,55.1,122.8,122.9V247L1063.9,247.1 M916.5,124.2
	c-40.8,0-73.7,32.9-73.7,73.7v49.1h147.4v-49.1C990.2,157.1,957.3,124.2,916.5,124.2 M891.9,517.2L1045.5,364l-34.6-34.6L891.9,448
	l-63.6-63.4L793.7,419L891.9,517.2z"/>
</svg>
