<?xml version="1.0" encoding="utf-8"?>
<!-- Generator: Adobe Illustrator 24.1.3, SVG Export Plug-In . SVG Version: 6.00 Build 0)  -->
<svg version="1.1" id="Layer_1" xmlns="http://www.w3.org/2000/svg" xmlns:xlink="http://www.w3.org/1999/xlink" x="0px" y="0px"
	 viewBox="0 0 1833 602" style="enable-background:new 0 0 1833 602;" xml:space="preserve">
<path d="M942.87,565.01v-50.67h33.78v50.67h42.23v-67.57h25.34l-84.46-76.01l-84.46,76.01h25.34v67.57H942.87z"/>
<path d="M466.8,294.5h56.02v37.35H466.8V294.5 M112,294.5h56.02v37.35H112V294.5 M336.09,107.77v56.02h-37.35v-56.02H336.09
	 M185.2,154.45l39.78,39.96l-26.52,26.33l-39.78-39.59L185.2,154.45 M409.85,194.23l39.59-39.78l26.7,26.7l-39.78,39.59
	L409.85,194.23 M317.41,201.14c61.88,0,112.04,50.16,112.04,112.04c0,41.46-22.6,77.68-56.02,97.1v33.61
	c0,10.31-8.36,18.67-18.67,18.67h-74.7c-10.31,0-18.67-8.36-18.67-18.67v-33.61c-33.43-19.42-56.02-55.65-56.02-97.1
	C205.37,251.3,255.53,201.14,317.41,201.14 M354.76,481.24v18.67c0,10.31-8.36,18.67-18.67,18.67h-37.35
	c-10.31,0-18.67-8.36-18.67-18.67v-18.67H354.76 M298.74,425.22h37.35v-39.78c32.31-8.22,56.02-37.53,56.02-72.27
	c0-41.25-33.44-74.7-74.7-74.7s-74.7,33.44-74.7,74.7c0,34.73,23.72,64.05,56.02,72.27V425.22z"/>
<path d="M1463.82,564.8v-50.67h33.78v50.67h42.23v-67.57h25.34l-84.46-76.01l-84.46,76.01h25.34v67.57H1463.82z"/>
<path d="M1294.32,224.83h-137.54c-23.37,0-42.32-18.95-42.32-42.32s18.95-42.32,42.32-42.32h7.51
	c6.98-24.44,29.52-42.32,55.97-42.32c32.14,0,58.19,26.05,58.19,58.19v5.29h15.87c17.53,0,31.74,14.21,31.74,31.74
	S1311.85,224.83,1294.32,224.83 M1298.02,140.5c-7.19-36.39-39.25-63.8-77.76-63.8c-30.58,0-57.13,17.35-70.36,42.64
	c-31.85,3.49-56.6,30.36-56.6,63.16c0,35.06,28.42,63.48,63.48,63.48h137.54c29.22,0,52.9-23.68,52.9-52.9
	C1347.22,165.16,1325.53,142.51,1298.02,140.5z"/>
<path d="M1122.92,292.69c-24.79,24.79-40.13,59.02-40.13,96.82s15.34,72.03,40.13,96.82l19.31-19.31
	c-19.86-19.72-32.05-47.11-32.05-77.51c0-30.27,12.19-57.79,32.05-77.51L1122.92,292.69 M1316.57,292.69L1297.26,312
	c19.86,19.72,32.05,47.25,32.05,77.51c0,30.4-12.19,57.79-32.05,77.51l19.31,19.31c24.79-24.79,40.13-59.02,40.13-96.82
	S1341.35,317.48,1316.57,292.69 M1161.68,331.45c-14.93,14.93-24.1,35.47-24.1,58.07s9.18,43.14,24.1,58.07l19.31-19.31
	c-9.86-9.86-16.02-23.55-16.02-38.76c0-15.2,6.16-28.9,16.02-38.76L1161.68,331.45 M1277.81,331.45l-19.31,19.31
	c9.86,9.86,16.02,23.55,16.02,38.76c0,15.2-6.16,28.9-16.02,38.76l19.31,19.31c14.93-14.93,24.1-35.47,24.1-58.07
	S1292.74,346.37,1277.81,331.45 M1219.75,362.12c-15.13,0-27.39,12.26-27.39,27.39s12.26,27.39,27.39,27.39s27.39-12.26,27.39-27.39
	S1234.87,362.12,1219.75,362.12 M1206.05,444.29v54.78h-13.69c-7.56,0-13.69,6.13-13.69,13.69h-95.86v27.39h95.86
	c0,7.56,6.13,13.69,13.69,13.69h54.78c7.56,0,13.69-6.13,13.69-13.69h95.86v-27.39h-95.86c0-7.56-6.13-13.69-13.69-13.69h-13.69
	v-54.78H1206.05z"/>
<path d="M1764.2,153.19l29.34-50.75v75.39v12.9h-128.98V74.64h12.9v80.87l35.47-61.52l41.92,24.38l27.34-47.27l11.16,6.45
	l-33.73,58.36l-41.98-24.18l-38.18,66.1h14.57l28.31-48.75L1764.2,153.19z"/>
<path d="M1377.72,20c-27.99,0-50.66,11.33-50.66,25.33s22.67,25.33,50.66,25.33s50.66-11.33,50.66-25.33S1405.71,20,1377.72,20
	 M1327.06,57.99v19c0,13.99,22.67,25.33,50.66,25.33s50.66-11.33,50.66-25.33v-19c0,13.99-22.67,25.33-50.66,25.33
	S1327.06,71.99,1327.06,57.99 M1327.06,89.66v19c0,13.99,22.67,25.33,50.66,25.33s50.66-11.33,50.66-25.33v-19
	c0,13.99-22.67,25.33-50.66,25.33S1327.06,103.65,1327.06,89.66z"/>
<path d="M1545.41,87.57c5.52,0,10.53,2.01,14.04,6.02l6.02-6.02v20.06h-20.06l9.03-9.03c-2.51-2.01-5.52-3.51-9.03-3.51
	c-7.02,0-12.54,5.52-12.54,12.54c0,7.02,5.52,12.54,12.54,12.54c4.01,0,7.52-2.01,10.03-5.02h8.53
	c-3.01,7.52-10.03,12.54-18.56,12.54c-11.03,0-20.06-9.03-20.06-20.06S1534.38,87.57,1545.41,87.57 M1512.81,107.63
	c0-5.52,1.5-10.53,3.51-15.05h-1c-9.53,0-17.55-8.02-17.55-17.55s8.02-17.55,17.55-17.55c9.53,0,17.55,8.02,17.55,17.55
	c0,1,0,2.01-0.5,2.51c4.01-1.5,8.02-2.51,13.04-2.51c2.51,0,5.02,0.5,7.52,1v-1c0-1.5,0-3.51-0.5-5.02l10.53-8.02
	c1-1,1-2.01,0.5-3.01l-10.03-17.55c-0.5-1.5-1.5-1.5-3.01-1.5l-12.54,5.02c-2.51-2.01-5.52-3.51-8.53-5.02l-2.01-13.54
	c0.5-0.5-1-1.5-2.01-1.5h-20.06c-1,0-2.51,1-2.51,2.01l-2.01,13.54c-3.01,1-5.52,3.01-8.53,4.51l-12.04-5.02c-1.5,0-2.51,0-3.51,1.5
	l-10.03,17.55c-0.5,1,0,2.01,1,3.01l10.53,8.02c0,1.5-0.5,3.51-0.5,5.02s0,3.51,0.5,5.02l-10.53,8.53c-1,1-1,2.01-0.5,3.01
	l10.03,17.55c0.5,1,1.5,1,3.01,1l12.54-5.02c2.51,2.01,5.52,3.51,8.53,5.02l2.01,13.54c0,1,1,2.01,2.51,2.01h12.54
	C1514.82,120.17,1512.81,114.15,1512.81,107.63z"/>
<path d="M1716.59,291.31c0,13.88-11.24,25.13-25.13,25.13c-13.88,0-25.13-11.24-25.13-25.13c0-13.88,11.24-25.13,25.13-25.13
	C1705.35,266.19,1716.59,277.43,1716.59,291.31 M1716.59,333.53v33.17h-69.1v-12.56c0-13.88,19.66-25.13,43.97-25.13
	C1700.89,329.01,1709.49,330.7,1716.59,333.53 M1798.26,366.7h-69.1V259.91h69.1V366.7 M1748,313.3c0-8.67,7.04-15.7,15.7-15.7
	c8.67,0,15.7,7.04,15.7,15.7c0,8.67-7.04,15.7-15.7,15.7C1755.04,329.01,1748,321.97,1748,313.3 M1785.69,285.03
	c-6.91,0-12.56-5.59-12.56-12.56h-18.85c0,6.97-5.59,12.56-12.56,12.56v56.54c6.97,0,12.56,5.65,12.56,12.56h18.85
	c0-6.91,5.65-12.56,12.56-12.56V285.03z"/>
<path d="M1769.37,459.45c7.42,0,13.49,6,13.49,13.49v67.43c0,7.42-6.07,13.49-13.49,13.49h-80.91c-7.48,0-13.49-6.07-13.49-13.49
	v-67.43c0-7.48,6-13.49,13.49-13.49h6.74v-13.49c0-18.61,15.1-33.73,33.71-33.73c18.61,0,33.71,15.12,33.71,33.73v13.49H1769.37
	 M1728.91,425.74c-11.19,0-20.23,9.04-20.23,20.23v13.49h40.46v-13.49C1749.14,434.77,1740.11,425.74,1728.91,425.74
	 M1722.17,533.62l42.14-42.07l-9.51-9.51l-32.63,32.57l-17.46-17.4l-9.51,9.44L1722.17,533.62z"/>
</svg>
