<?xml version="1.0" encoding="utf-8"?>
<!-- Generator: Adobe Illustrator 24.1.3, SVG Export Plug-In . SVG Version: 6.00 Build 0)  -->
<svg version="1.1" id="Layer_1" xmlns="http://www.w3.org/2000/svg" xmlns:xlink="http://www.w3.org/1999/xlink" x="0px" y="0px"
	 viewBox="0 0 1833 602" style="enable-background:new 0 0 1833 602;" xml:space="preserve">
<style type="text/css">
	.st0{fill:#637A91;}
</style>
<path class="st0" d="M757.5,230.8l58.2-34.9l23.3,38.8l-58.2,34.9L757.5,230.8 M388.8,452.1l58.2-34.9l23.3,38.8l-58.2,34.9
	L388.8,452.1 M505.2,118.3l34.9,58.2l-38.8,23.3l-34.9-58.2L505.2,118.3 M377.6,260.9l66.3,16.7l-11.1,43.9l-66-16.3L377.6,260.9
	 M635.8,162.1l16.3-66l44.4,11.1l-16.6,65.9L635.8,162.1 M544.1,227c64.3-38.6,147.7-17.7,186.3,46.5c25.9,43.1,25,94.8,2.3,135.8
	l21,34.9c6.4,10.7,3,24.6-7.8,31l-77.6,46.6c-10.7,6.4-24.6,3-31-7.8l-21-34.9c-46.8,0.7-92.9-22.9-118.8-66
	C458.9,349,479.8,265.6,544.1,227 M757.6,494.7l11.6,19.4c6.4,10.7,3,24.6-7.8,31l-38.8,23.3c-10.7,6.4-24.6,3-31-7.8l-11.6-19.4
	L757.6,494.7 M664.4,471.5l38.8-23.3l-24.8-41.3c28.5-28.7,34.8-73.9,13.1-110c-25.7-42.9-81.3-56.8-124.2-31s-56.8,81.3-31,124.2
	c21.7,36.1,64.6,51.8,103.3,40.2L664.4,471.5L664.4,471.5z"/>
<path class="st0" d="M968.8,275.1h31.6v31.6h-31.6v79c0,17.4-14.1,31.6-31.6,31.6c17.4,0,31.6,14.1,31.6,31.6v78.9h31.6v31.6h-31.6
	c-16.9-4.3-31.6-14.2-31.6-31.6v-63.2c0-17.4-14.1-31.6-31.6-31.6h-15.8v-31.6h15.8c17.4,0,31.6-14.1,31.6-31.6v-63.2
	C937.2,289.2,951.3,275.1,968.8,275.1 M1189.8,275.1c17.4,0,31.6,14.1,31.6,31.6v63.2c0,17.4,14.1,31.6,31.6,31.6h15.8V433H1253
	c-17.4,0-31.6,14.1-31.6,31.6v63.2c0,17.4-14.1,31.6-31.6,31.6h-31.6v-31.6h31.6v-78.9c0-17.4,14.1-31.6,31.6-31.6
	c-17.4,0-31.6-14.1-31.6-31.6v-79h-31.6v-31.6L1189.8,275.1 M1079.3,464.5c8.7,0,15.8,7.1,15.8,15.8s-7.1,15.8-15.8,15.8
	c-8.7,0-15.8-7.1-15.8-15.8S1070.6,464.5,1079.3,464.5 M1016.1,464.5c8.7,0,15.8,7.1,15.8,15.8s-7.1,15.8-15.8,15.8
	c-8.7,0-15.8-7.1-15.8-15.8S1007.4,464.5,1016.1,464.5 M1142.5,464.5c8.7,0,15.8,7.1,15.8,15.8s-7.1,15.8-15.8,15.8
	c-8.7,0-15.8-7.1-15.8-15.8S1133.7,464.5,1142.5,464.5z"/>
</svg>
