<?xml version="1.0" encoding="utf-8"?>
<!-- Generator: Adobe Illustrator 24.1.3, SVG Export Plug-In . SVG Version: 6.00 Build 0)  -->
<svg version="1.1" id="Layer_1" xmlns="http://www.w3.org/2000/svg" xmlns:xlink="http://www.w3.org/1999/xlink" x="0px" y="0px"
	 viewBox="0 0 1833 602" style="enable-background:new 0 0 1833 602;" xml:space="preserve">
<style type="text/css">
	.st0{fill:#637A91;}
	.st1{font-family:'Open Sans';font-weight: bold}
	.st2{font-size:85.7173px;}
</style>
<text transform="matrix(1 0 0 1 175.0097 227.4)" class="st0 st1 st2">01000100</text>
<text transform="matrix(1 0 0 1 175.0097 330.2604)" class="st0 st1 st2">01100001</text>
<text transform="matrix(1 0 0 1 175.0097 433.1198)" class="st0 st1 st2">01110100</text>
<text transform="matrix(1 0 0 1 175.0097 535.9801)" class="st0 st1 st2">01100001</text>
<path class="st0" d="M1476.8,172.5c-89.2,0-161.4,36.1-161.4,80.7s72.2,80.7,161.4,80.7s161.4-36.1,161.4-80.7
	S1565.9,172.5,1476.8,172.5 M1315.4,293.5V354c0,44.6,72.2,80.7,161.4,80.7s161.4-36.1,161.4-80.7v-60.5
	c0,44.6-72.2,80.7-161.4,80.7S1315.4,338.1,1315.4,293.5 M1315.4,394.4v60.5c0,44.6,72.2,80.7,161.4,80.7s161.4-36.1,161.4-80.7
	v-60.5c0,44.6-72.2,80.7-161.4,80.7S1315.4,439,1315.4,394.4z"/>
<path class="st0" d="M903.8,341.5c15.7-58.4,28-96.6,55.3-96.6s39.7,38.2,55.3,96.6c17.5,65.7,37.5,139.9,108.4,139.9V445
	c-40,0-54.6-44.8-73.3-112.8c-16.2-60.8-33.1-123.7-90.4-123.7s-74.2,63-90.4,123.7c-18.2,68-33.3,112.8-73.3,112.8V172.1H759V536
	h363.9v-36.4H795.4v-18.2C866.3,481.4,886.3,407.2,903.8,341.5z"/>
</svg>
