<?xml version="1.0" encoding="utf-8"?>
<!-- Generator: Adobe Illustrator 24.1.3, SVG Export Plug-In . SVG Version: 6.00 Build 0)  -->
<svg version="1.1" id="Layer_1" xmlns="http://www.w3.org/2000/svg" xmlns:xlink="http://www.w3.org/1999/xlink" x="0px" y="0px"
	 viewBox="0 0 1833 602" style="enable-background:new 0 0 1833 602;" xml:space="preserve">
<style type="text/css">
	.st0{fill:#010101;}
</style>
<path class="st0" d="M1057.86,215.05c27.02,0,49.13,21.86,49.13,49.13v245.63c0,27.02-22.11,49.13-49.13,49.13H763.11
	c-27.26,0-49.13-22.11-49.13-49.13V264.18c0-27.26,21.86-49.13,49.13-49.13h24.56v-49.13c0-67.79,55.02-122.86,122.81-122.86
	s122.81,55.07,122.81,122.86v49.13H1057.86 M910.49,92.24c-40.77,0-73.69,32.91-73.69,73.69v49.13h147.38v-49.13
	C984.18,125.15,951.26,92.24,910.49,92.24 M885.92,485.25l153.52-153.27l-34.63-34.63L885.92,415.98l-63.62-63.37l-34.63,34.39
	L885.92,485.25z"/>
</svg>
