<?xml version="1.0" encoding="utf-8"?>
<!-- Generator: Adobe Illustrator 24.1.3, SVG Export Plug-In . SVG Version: 6.00 Build 0)  -->
<svg version="1.1" id="Layer_1" xmlns="http://www.w3.org/2000/svg" xmlns:xlink="http://www.w3.org/1999/xlink" x="0px" y="0px"
	 viewBox="0 0 1833 602" style="enable-background:new 0 0 1833 602;" xml:space="preserve">
<path d="M1422.47,429.33H1113.5c-52.5,0-95.07-42.56-95.07-95.07s42.56-95.07,95.07-95.07h16.87
	c15.69-54.9,66.31-95.07,125.72-95.07c72.19,0,130.72,58.52,130.72,130.72v11.88h35.65c39.38,0,71.3,31.92,71.3,71.3
	S1461.85,429.33,1422.47,429.33 M1430.79,239.91c-16.16-81.76-88.17-143.31-174.68-143.31c-68.69,0-128.34,38.98-158.05,95.78
	c-71.54,7.84-127.15,68.21-127.15,141.89c0,78.76,63.84,142.6,142.6,142.6h308.96c65.63,0,118.83-53.2,118.83-118.83
	C1541.3,295.29,1492.58,244.42,1430.79,239.91z"/>
<path d="M405.33,142.26h-63.5c-35.07,0-63.5,28.43-63.5,63.5v253.98h63.5V332.75h63.5v126.99h63.5V205.76
	C468.83,170.69,440.4,142.26,405.33,142.26 M405.33,269.25h-63.5v-63.5h63.5 M627.57,142.26H500.58v317.48h63.5V332.75h63.5
	c35.07,0,63.5-28.43,63.5-63.5v-63.5C691.06,170.69,662.64,142.26,627.57,142.26 M627.57,269.25h-63.5v-63.5h63.5 M818.06,205.76
	v190.49h31.75v63.5H722.81v-63.5h31.75V205.76h-31.75v-63.5H849.8v63.5H818.06z"/>
</svg>
